<?xml version="1.0" encoding="UTF-8"?>
<svg id="Layer_1" xmlns="http://www.w3.org/2000/svg" version="1.1" viewBox="0 0 105 105" width="100px" height="100px">
  <!-- Generator: Adobe Illustrator 29.3.1, SVG Export Plug-In . SVG Version: 2.1.0 Build 151)  -->
  <defs>
    <style>
      .st0 {
        fill: #007993;
      }
    </style>
  </defs>
  <path class="st0" d="M67.3,93.5c0,0-.1,0-.1,0v-16.2c0,0,0-.1,0-.2,8.3-5,13.9-14.2,13.9-24.6s-8.7-24-20.6-27.5c-.3-.1-.7.2-.7.5v29.8c0,.2-.3.3-.4.1-1-1.3-2.4-2.9-4.9-5.9-7.5-9.2-9.7-15.7-9.7-24.6v-14.9s0-.3,0-.3c0,0,0-.2.2-.2,2.4-.4,4.8-.6,7.3-.6h.5c23.8.3,43,19.7,43,43.6s-12,34.9-28.8,41M60,95v.3c0,0,0,.2-.2.2-2.4.4-4.8.6-7.3.6h-.5c-23.8-.3-43-19.7-43-43.6S20.9,17.6,37.7,11.5c0,0,.1,0,.1,0v16.2c0,0,0,.1,0,.2-8.3,5-13.9,14.2-13.9,24.6s8.7,24,20.6,27.5c.3.1.7-.2.7-.5v-29.8c0-.2.3-.3.4-.1,1,1.3,2.4,2.9,4.9,5.9,7.5,9.2,9.7,15.7,9.7,24.6v14.9ZM52.5,2.5h0C24.9,2.5,2.5,24.9,2.5,52.5s22.4,50,50,50,50-22.4,50-50S80.1,2.5,52.5,2.5"/>
</svg>
