<?xml version="1.0" encoding="UTF-8"?>
<svg id="Layer_2" data-name="Layer 2" xmlns="http://www.w3.org/2000/svg" viewBox="0 0 110 12.41">
  <defs>
    <style>
      .cls-1 {
        fill: #007580;
      }
    </style>
  </defs>
  <g id="Layer_3" data-name="Layer 3">
    <path class="cls-1" d="M19.15,7.34c.49,1.08.76,2.04.73,2.65-.04.79-.34,1.4-.87,1.81-.53.41-1.2.61-2.01.61h-.66c-.07,0-.13-.06-.13-.13v-.87c0-.07.06-.13.13-.13.76,0,1.32-.05,1.58-.14.5-.18.76-.54.8-1.12.03-.55-.23-1.46-.69-2.44-.43-.9-.96-1.97-1.33-2.72-.45-.98-.66-1.81-.62-2.44.05-.79.34-1.4.88-1.81.53-.4,1.2-.61,2.01-.61h.66c.07,0,.13.06.13.13v.87c0,.07-.06.13-.13.13-.76,0-1.32.05-1.58.14-.51.18-.77.54-.8,1.12-.03.59.16,1.35.58,2.24.4.79.91,1.83,1.33,2.71ZM77.66,0h-.89c-.07,0-.13.06-.13.13v12.14c0,.07.06.13.13.13h.89c.07,0,.13-.06.13-.13V.13c0-.07-.06-.13-.13-.13ZM49.6,11.25h-2.99v-4.68h2.88c.07,0,.13-.06.13-.13v-.89c0-.07-.06-.13-.13-.13h-2.88V1.16h2.88c.07,0,.13-.06.13-.13V.13c0-.07-.06-.13-.13-.13h-3.9c-.07,0-.13.06-.13.13v12.14c0,.07.06.13.13.13h4.01c.07,0,.13-.06.13-.13v-.89c0-.07-.06-.13-.13-.13ZM62.25,4.63c-.42-.89-.62-1.65-.58-2.24.03-.57.29-.94.8-1.12.26-.09.82-.14,1.58-.14.07,0,.13-.06.13-.13V.14c0-.07-.06-.13-.13-.13h-.66c-.8,0-1.48.2-2.01.61-.54.41-.83,1.02-.88,1.81-.04.64.17,1.46.62,2.44.53,1.07.99,2.01,1.33,2.72.46.97.72,1.89.69,2.44-.03.58-.29.94-.8,1.12-.26.09-.82.14-1.58.14-.07,0-.13.06-.13.13v.87c0,.07.06.13.13.13h.66c.8,0,1.48-.21,2.01-.61.54-.41.83-1.02.87-1.81.03-.6-.23-1.57-.73-2.65-.42-.88-.93-1.92-1.33-2.71ZM5.35,6.28c-.07,0-.13.06-.13.13v4.75c-.33-.07-.66-.17-.98-.3-.6-.25-1.14-.62-1.61-1.09-.47-.47-.83-1.01-1.09-1.61-.26-.62-.4-1.29-.4-1.97s.13-1.35.4-1.97c.25-.6.62-1.14,1.09-1.61.47-.47,1.01-.83,1.61-1.09.35-.15.74-.26,1.15-.33.07-.01.11-.07.11-.13V.2s-.02-.08-.05-.1c-.02-.02-.06-.03-.09-.03,0,0-.01,0-.02,0C2.3.49,0,3.13,0,6.21c0,3.42,2.78,6.21,6.21,6.21.07,0,.13-.06.13-.13v-5c0-.55-.44-.99-.99-.99ZM94.2,6.28c-.07,0-.13.06-.13.13v4.75c-.33-.07-.66-.17-.98-.3-.6-.25-1.14-.62-1.61-1.09-.47-.47-.83-1.01-1.09-1.61-.26-.62-.4-1.29-.4-1.97s.13-1.35.4-1.97c.25-.6.62-1.14,1.09-1.61.47-.47,1.01-.83,1.61-1.09.35-.15.74-.26,1.15-.33.07-.01.11-.07.11-.13V.2s-.02-.08-.05-.1c-.02-.02-.06-.03-.09-.03,0,0-.01,0-.02,0-3.05.42-5.35,3.06-5.35,6.14,0,3.42,2.78,6.21,6.21,6.21.07,0,.13-.06.13-.13v-5c0-.55-.44-.99-.99-.99ZM29.75,0c-.07,0-.13.06-.13.13v5c0,.55.44.99.99.99.07,0,.13-.06.13-.13V1.24c.33.07.66.17.98.3.6.25,1.14.62,1.61,1.09s.83,1.01,1.09,1.61c.26.62.4,1.29.4,1.97s-.13,1.35-.4,1.97c-.25.6-.62,1.14-1.09,1.61s-1.01.83-1.61,1.09c-.35.15-.74.26-1.15.33-.07.01-.11.07-.11.13v.88s.02.08.05.1c.02.02.06.03.09.03,0,0,.01,0,.02,0,3.05-.42,5.35-3.06,5.35-6.14C35.96,2.78,33.17,0,29.75,0ZM103.79,0c-.07,0-.13.06-.13.13v11.29c0,.55.45,1,1,.99.07,0,.13-.06.13-.13V1.24c.33.07.66.17.98.3.6.25,1.14.62,1.61,1.09.47.47.83,1.01,1.09,1.61.26.62.4,1.29.4,1.97v6.07c0,.07.06.13.13.13h.87c.07,0,.13-.06.13-.13v-6.07C110,2.78,107.22,0,103.79,0Z"/>
  </g>
</svg>