<?xml version="1.0" encoding="UTF-8"?>
<svg id="Layer_1" data-name="Layer 1" xmlns="http://www.w3.org/2000/svg" xmlns:xlink="http://www.w3.org/1999/xlink" viewBox="0 0 105 105">
  <defs>
    <style>
      .cls-1 {
        fill: url(#linear-gradient);
      }
    </style>
    <linearGradient id="linear-gradient" x1="72.49" y1="17.88" x2="32.51" y2="87.12" gradientUnits="userSpaceOnUse">
      <stop offset="0" stop-color="#007580"/>
      <stop offset=".16" stop-color="#04777c"/>
      <stop offset=".33" stop-color="#107f71"/>
      <stop offset=".5" stop-color="#258d5f"/>
      <stop offset=".67" stop-color="#42a045"/>
      <stop offset=".84" stop-color="#67b825"/>
      <stop offset="1" stop-color="#92d500"/>
    </linearGradient>
  </defs>
  <path class="cls-1" d="M28.97,52.5c0,12.98,10.56,23.53,23.53,23.53h1.03c.73,0,1.32-.58,1.32-1.32v-1.03s0-30.52,0-30.52c0-.27.24-.48.51-.44,9.07,1.39,15.96,9.27,15.96,18.61v25.66c0,.5-.28.96-.73,1.18-5.66,2.88-12.09,4.45-18.9,4.31-21.78-.43-39.32-18.43-39.19-40.22.07-12.88,6.23-24.31,15.75-31.57.29-.22.71-.02.71.35v31.46s0,0,0,0ZM76.03,52.5v31.46c0,.37.43.57.72.35,9.51-7.26,15.67-18.7,15.75-31.57.12-21.79-17.41-39.79-39.19-40.22-6.81-.13-13.24,1.44-18.9,4.31-.45.23-.73.68-.73,1.18v25.66c0,9.34,6.89,17.22,15.96,18.61.27.04.51-.16.51-.44v-30.52s0-1.03,0-1.03c0-.73.59-1.32,1.32-1.32h1.03c12.98,0,23.53,10.56,23.53,23.54h0Z"/>
</svg>