<?xml version="1.0" encoding="UTF-8"?>
<svg id="Layer_1" data-name="Layer 1" xmlns="http://www.w3.org/2000/svg" viewBox="0 0 105 105">
  <defs>
    <style>
      .cls-1 {
        fill: #010101;
      }
    </style>
  </defs>
  <path class="cls-1" d="M23.09,52.5V13.18c-.01-.46-.54-.71-.9-.44C10.29,21.82,2.59,36.11,2.5,52.21c-.16,27.24,21.76,49.74,48.99,50.28,8.51.17,16.55-1.79,23.63-5.39.56-.28.91-.85.91-1.48v-32.07c0-11.67-8.61-21.52-19.95-23.26-.34-.05-.64.2-.64.54v38.15s0,1.29,0,1.29c0,.91-.74,1.65-1.65,1.65h-1.28c-16.22-.01-29.41-13.21-29.41-29.42h0Z"/>
  <path class="cls-1" d="M81.91,52.5v39.32c.01.46.54.71.9.44,11.89-9.08,19.59-23.37,19.69-39.47.16-27.24-21.76-49.74-48.99-50.28-8.51-.17-16.55,1.79-23.63,5.39-.56.28-.91.85-.91,1.48v32.07c0,11.67,8.61,21.52,19.95,23.26.34.05.64-.2.64-.54V26.02s0-1.29,0-1.29c0-.91.74-1.65,1.65-1.65h1.28c16.22.01,29.41,13.21,29.41,29.42h0Z"/>
</svg>