<?xml version="1.0" encoding="UTF-8"?>
<svg id="Layer_1" data-name="Layer 1" xmlns="http://www.w3.org/2000/svg" xmlns:xlink="http://www.w3.org/1999/xlink" viewBox="0 0 105 105">
  <defs>
    <style>
      .cls-1 {
        fill: url(#linear-gradient);
      }
    </style>
    <linearGradient id="linear-gradient" x1="74.99" y1="13.55" x2="30.01" y2="91.45" gradientUnits="userSpaceOnUse">
      <stop offset="0" stop-color="#007580"/>
      <stop offset=".16" stop-color="#04777c"/>
      <stop offset=".33" stop-color="#107f71"/>
      <stop offset=".5" stop-color="#258d5f"/>
      <stop offset=".67" stop-color="#42a045"/>
      <stop offset=".84" stop-color="#67b825"/>
      <stop offset="1" stop-color="#92d500"/>
    </linearGradient>
  </defs>
  <path class="cls-1" d="M26.03,52.5c0,14.6,11.88,26.47,26.47,26.47h1.16c.82,0,1.49-.66,1.49-1.48v-1.16s0-34.33,0-34.33c0-.31.27-.54.58-.49,10.2,1.56,17.95,10.43,17.95,20.93v28.86c0,.56-.32,1.08-.82,1.33-6.36,3.24-13.6,5-21.26,4.85-24.51-.48-44.23-20.74-44.09-45.25.08-14.49,7.01-27.35,17.72-35.52.33-.25.8-.02.8.39v35.39s.01,0,.01,0ZM78.97,52.5v35.39c.01.41.48.64.81.39,10.7-8.17,17.63-21.03,17.72-35.52.14-24.51-19.58-44.77-44.09-45.25-7.66-.15-14.9,1.62-21.26,4.85-.5.26-.82.77-.82,1.33v28.86c0,10.5,7.75,19.37,17.95,20.93.3.05.58-.18.58-.49V28.67s0-1.16,0-1.16c0-.82.67-1.49,1.49-1.49h1.16c14.6,0,26.47,11.89,26.47,26.48h0Z"/>
</svg>