<?xml version="1.0" encoding="UTF-8"?>
<svg id="Layer_2" data-name="Layer 2" xmlns="http://www.w3.org/2000/svg" viewBox="0 0 120 13.54">
  <defs>
    <style>
      .cls-1 {
        fill: #007580;
      }
    </style>
  </defs>
  <g id="Layer_3" data-name="Layer 3">
    <path class="cls-1" d="M20.9,8.01c.54,1.18.83,2.23.79,2.89-.05.86-.37,1.53-.95,1.98-.58.44-1.31.67-2.19.67h-.71c-.08,0-.15-.07-.15-.15v-.95c0-.08.07-.15.15-.15.82,0,1.44-.05,1.72-.15.55-.19.83-.59.87-1.22.03-.6-.25-1.59-.75-2.66-.47-.98-1.05-2.15-1.45-2.96-.49-1.07-.72-1.97-.68-2.67.05-.86.37-1.52.96-1.97.58-.44,1.31-.66,2.19-.66h.71c.08,0,.15.07.15.15v.95c0,.08-.07.15-.15.15-.83,0-1.44.05-1.72.15-.55.19-.84.59-.87,1.22-.04.65.18,1.47.63,2.44.43.86.99,1.99,1.45,2.96ZM84.72,0h-.97c-.08,0-.15.07-.15.15v13.25c0,.08.07.15.15.15h.97c.08,0,.15-.07.15-.15V.15c0-.08-.07-.15-.15-.15ZM54.11,12.27h-3.26v-5.11h3.14c.08,0,.15-.07.15-.15v-.97c0-.08-.07-.15-.15-.15h-3.14V1.27h3.14c.08,0,.15-.07.15-.15V.15c0-.08-.07-.15-.15-.15h-4.26c-.08,0-.15.07-.15.15v13.25c0,.08.07.15.15.15h4.38c.08,0,.15-.07.15-.15v-.97c0-.08-.07-.15-.15-.15ZM67.91,5.06c-.46-.97-.67-1.8-.63-2.44.04-.63.32-1.03.87-1.22.28-.1.9-.15,1.72-.15.08,0,.15-.07.15-.15V.15c0-.08-.07-.15-.15-.15h-.71c-.88,0-1.61.22-2.19.66-.59.45-.91,1.11-.96,1.97-.04.7.19,1.59.68,2.67.58,1.16,1.08,2.19,1.45,2.96.5,1.06.78,2.06.75,2.66-.03.63-.32,1.03-.87,1.22-.28.1-.9.15-1.72.15-.08,0-.15.07-.15.15v.95c0,.08.07.15.15.15h.72c.88,0,1.61-.22,2.19-.67.59-.45.91-1.11.95-1.98.04-.66-.25-1.71-.79-2.89-.46-.96-1.02-2.1-1.45-2.96ZM5.84,6.85c-.08,0-.15.07-.15.15v5.19c-.37-.07-.72-.18-1.07-.33-.66-.28-1.25-.68-1.76-1.18-.51-.51-.91-1.1-1.18-1.76-.29-.68-.43-1.4-.43-2.15s.15-1.47.43-2.15c.28-.66.68-1.25,1.18-1.76.51-.51,1.1-.91,1.76-1.18.39-.16.81-.28,1.26-.36.07-.01.12-.07.12-.15V.22s-.02-.08-.05-.11c-.03-.02-.06-.04-.1-.04,0,0-.01,0-.02,0C2.51.53,0,3.41,0,6.77c0,3.73,3.04,6.77,6.77,6.77.08,0,.15-.07.15-.15v-5.46c0-.6-.48-1.08-1.08-1.08ZM102.77,6.85c-.08,0-.15.07-.15.15v5.19c-.37-.07-.72-.18-1.07-.33-.66-.28-1.25-.68-1.76-1.18-.51-.51-.91-1.1-1.18-1.76-.29-.68-.43-1.4-.43-2.15s.15-1.47.43-2.15c.28-.66.68-1.25,1.18-1.76.51-.51,1.1-.91,1.76-1.18.39-.16.81-.28,1.26-.36.07-.01.12-.07.12-.15V.22s-.02-.08-.05-.11c-.03-.02-.06-.04-.1-.04,0,0-.01,0-.02,0-3.33.46-5.83,3.34-5.83,6.7,0,3.73,3.04,6.77,6.77,6.77.08,0,.15-.07.15-.15v-5.46c0-.6-.48-1.08-1.08-1.08ZM32.46,0c-.08,0-.15.07-.15.15v5.46c0,.6.48,1.08,1.08,1.08.08,0,.15-.07.15-.15V1.35c.37.07.72.18,1.07.33.66.28,1.25.68,1.76,1.18s.91,1.1,1.18,1.76c.29.68.43,1.4.43,2.15s-.15,1.47-.43,2.15c-.28.66-.68,1.25-1.18,1.76s-1.1.91-1.76,1.18c-.39.16-.81.28-1.26.36-.07.01-.12.07-.12.15v.96s.02.08.05.11c.03.02.06.04.1.04,0,0,.01,0,.02,0,3.33-.46,5.83-3.34,5.83-6.7C39.23,3.04,36.19,0,32.46,0ZM113.23,0c-.08,0-.15.07-.15.15v12.31c0,.6.49,1.09,1.09,1.08.08,0,.14-.07.14-.15V1.35c.37.07.72.18,1.07.33.66.28,1.25.68,1.76,1.18.51.51.91,1.1,1.18,1.76.29.68.43,1.4.43,2.15v6.62c0,.08.07.15.15.15h.95c.08,0,.15-.07.15-.15v-6.62C120,3.04,116.96,0,113.23,0Z"/>
  </g>
</svg>