<?xml version="1.0" encoding="UTF-8"?>
<svg id="Layer_2" data-name="Layer 2" xmlns="http://www.w3.org/2000/svg" viewBox="0 0 100 11.29">
  <defs>
    <style>
      .cls-1 {
        fill: #007580;
      }
    </style>
  </defs>
  <g id="Layer_3" data-name="Layer 3">
    <path class="cls-1" d="M17.41,6.68c.45.98.69,1.86.66,2.41-.04.72-.31,1.27-.79,1.65-.48.37-1.09.56-1.82.56h-.6c-.07,0-.12-.05-.12-.12v-.79c0-.07.05-.12.12-.12.69,0,1.2-.04,1.43-.13.46-.16.7-.49.72-1.02.03-.5-.21-1.33-.62-2.21-.39-.82-.87-1.79-1.21-2.47-.41-.89-.6-1.64-.57-2.22.04-.72.31-1.27.8-1.64.48-.37,1.1-.55,1.83-.55h.6c.07,0,.12.05.12.12v.79c0,.07-.05.12-.12.12-.69,0-1.2.04-1.44.13-.46.16-.7.49-.73,1.01-.03.54.15,1.22.53,2.04.36.72.82,1.66,1.21,2.46ZM70.6,0h-.81c-.07,0-.12.05-.12.12v11.04c0,.07.05.12.12.12h.81c.07,0,.12-.05.12-.12V.12c0-.07-.05-.12-.12-.12ZM45.09,10.23h-2.72v-4.26h2.62c.07,0,.12-.05.12-.12v-.81c0-.07-.05-.12-.12-.12h-2.62V1.06h2.62c.07,0,.12-.05.12-.12V.12c0-.07-.05-.12-.12-.12h-3.55c-.07,0-.12.05-.12.12v11.04c0,.07.05.12.12.12h3.65c.07,0,.12-.05.12-.12v-.81c0-.07-.05-.12-.12-.12ZM56.59,4.21c-.38-.81-.56-1.5-.53-2.04.03-.52.27-.85.73-1.01.24-.08.75-.13,1.44-.13.07,0,.12-.05.12-.12V.12c0-.07-.05-.12-.12-.12h-.6c-.73,0-1.34.19-1.83.55-.49.37-.76.93-.8,1.64-.03.58.16,1.33.57,2.22.48.97.9,1.82,1.21,2.47.42.89.65,1.71.62,2.21-.03.52-.27.86-.72,1.02-.24.08-.75.13-1.43.13-.07,0-.12.05-.12.12v.79c0,.07.05.12.12.12h.6c.73,0,1.34-.19,1.82-.55.49-.37.76-.93.79-1.65.03-.55-.21-1.43-.66-2.41-.38-.8-.85-1.75-1.21-2.46ZM4.86,5.71c-.07,0-.12.05-.12.12v4.32c-.3-.06-.6-.15-.89-.27-.55-.23-1.04-.56-1.46-.99-.42-.42-.75-.92-.99-1.46-.24-.57-.36-1.17-.36-1.79s.12-1.22.36-1.79c.23-.55.56-1.04.99-1.46.42-.42.92-.75,1.46-.99.32-.14.67-.24,1.05-.3.06,0,.1-.06.1-.12V.18s-.02-.07-.04-.09c-.02-.02-.05-.03-.08-.03,0,0-.01,0-.02,0C2.09.44,0,2.84,0,5.64c0,3.11,2.53,5.64,5.64,5.64.07,0,.12-.05.12-.12v-4.55c0-.5-.4-.9-.9-.9ZM85.64,5.71c-.07,0-.12.05-.12.12v4.32c-.3-.06-.6-.15-.89-.27-.55-.23-1.04-.56-1.46-.99-.42-.42-.75-.92-.99-1.46-.24-.57-.36-1.17-.36-1.79s.12-1.22.36-1.79c.23-.55.56-1.04.99-1.46.42-.42.92-.75,1.46-.99.32-.14.67-.24,1.05-.3.06,0,.1-.06.1-.12V.18s-.02-.07-.04-.09c-.02-.02-.05-.03-.08-.03,0,0-.01,0-.02,0-2.77.38-4.86,2.78-4.86,5.58,0,3.11,2.53,5.64,5.64,5.64.07,0,.12-.05.12-.12v-4.55c0-.5-.4-.9-.9-.9ZM27.05,0c-.07,0-.12.05-.12.12v4.55c0,.5.4.9.9.9.07,0,.12-.05.12-.12V1.13c.3.06.6.15.89.27.55.23,1.04.56,1.46.99s.75.92.99,1.46c.24.57.36,1.17.36,1.79s-.12,1.22-.36,1.79c-.23.55-.56,1.04-.99,1.46s-.92.75-1.46.99c-.32.14-.67.24-1.05.3-.06,0-.1.06-.1.12v.8s.02.07.04.09c.02.02.05.03.08.03,0,0,.01,0,.02,0,2.77-.38,4.86-2.78,4.86-5.58C32.69,2.53,30.16,0,27.05,0ZM94.36,0c-.07,0-.12.06-.12.12v10.26c0,.5.41.9.91.9.06,0,.11-.06.11-.12V1.13c.3.06.6.15.89.27.55.23,1.04.56,1.46.99.42.42.75.92.99,1.46.24.57.36,1.17.36,1.79v5.52c0,.07.05.12.12.12h.79c.07,0,.12-.05.12-.12v-5.52C100,2.53,97.47,0,94.36,0Z"/>
  </g>
</svg>